<?xml version="1.0" standalone="no"?>
<!DOCTYPE svg PUBLIC "-//W3C//DTD SVG 20010904//EN"
 "http://www.w3.org/TR/2001/REC-SVG-20010904/DTD/svg10.dtd">
<svg version="1.0" xmlns="http://www.w3.org/2000/svg"
 width="160.000000pt" height="160.000000pt" viewBox="0 0 160.000000 160.000000"
 preserveAspectRatio="xMidYMid meet">
<metadata>
Created by potrace 1.14, written by Peter Selinger 2001-2017
</metadata>
<g transform="translate(0.000000,160.000000) scale(0.100000,-0.100000)"
fill="#000000" stroke="none">
<path d="M716 1571 c-32 -35 -45 -97 -62 -286 -13 -156 -21 -197 -50 -259 -12
-27 -30 -92 -39 -145 -28 -173 -37 -205 -68 -264 -36 -69 -103 -148 -120 -142
-7 3 -93 -37 -192 -89 l-180 -94 -3 -146 -3 -145 288 -1 288 0 47 73 c48 75
71 121 62 130 -13 12 18 46 55 61 22 8 50 29 63 46 l22 31 13 -25 c7 -14 35
-35 63 -48 46 -21 50 -26 60 -71 6 -28 30 -78 60 -122 l51 -75 264 0 265 0 -1
158 0 158 -168 87 c-93 48 -175 87 -184 87 -17 0 -73 73 -105 135 -23 46 -41
105 -48 155 -15 107 -37 210 -54 245 -30 66 -38 105 -56 300 -10 102 -11 116
-18 154 -9 43 -33 101 -43 102 -4 0 -16 2 -25 4 -22 4 -57 -22 -67 -48 -8 -20
-9 -20 -25 11 -9 17 -23 32 -30 32 -8 0 -21 2 -28 5 -8 3 -22 -3 -32 -14z"/>
</g>
</svg>
